#tb 0: 1/10
#media_type 0: video
#codec_id 0: rawvideo
#dimensions 0: 320x240
#sar 0: 0/1
0,          0,          0,        1,    76800, 0xea62ab65
0,          1,          1,        1,    76800, 0xbc0d8b58
0,          2,          2,        1,    76800, 0x682967d0
0,          3,          3,        1,    76800, 0x2f1d3353
0,          4,          4,        1,    76800, 0x0f3306c5
0,          5,          5,        1,    76800, 0x1f026ce0
0,          6,          6,        1,    76800, 0xefff2a28
0,          7,          7,        1,    76800, 0xa7daf536
0,          8,          8,        1,    76800, 0x8b95b1b2
0,          9,          9,        1,    76800, 0x821b76c2
0,         10,         10,        1,    76800, 0x48193d3d
0,         11,         11,        1,    76800, 0x6182634a
0,         12,         12,        1,    76800, 0x442b2dcc
0,         13,         13,        1,    76800, 0x83e2ee26
0,         14,         14,        1,    76800, 0x47d8b74d
0,         15,         15,        1,    76800, 0x412b7dcd
0,         16,         16,        1,    76800, 0x65e33b7c
0,         17,         17,        1,    76800, 0xb04a0915
0,         18,         18,        1,    76800, 0x5405c876
0,         19,         19,        1,    76800, 0xce6d98bc
